<svg width="220" height="220" viewBox="0 0 220 220" xmlns="http://www.w3.org/2000/svg">
  <!-- Background -->
  <defs>
    <linearGradient id="rrrGradient" x1="0%" y1="0%" x2="100%" y2="100%">
      <stop offset="0%" style="stop-color:#FF4B2B"/>
      <stop offset="100%" style="stop-color:#FF416C"/>
    </linearGradient>
  </defs>
  
  <!-- Main Circle -->
  <circle cx="110" cy="110" r="110" fill="url(#rrrGradient)"/>
  
  <!-- RRR Text -->
  <text x="110" y="100" font-family="Arial Black, sans-serif" font-size="60" fill="#FFF" text-anchor="middle" font-weight="bold">RRR</text>
  
  <!-- Decorative Elements -->
  <g fill="#FFF" opacity="0.2">
    <!-- Flames -->
    <path d="M70 140 Q90 120 70 100 Q100 90 90 70 Q120 90 110 70 Q140 100 130 80 Q160 110 140 140 Z"/>
    <path d="M140 140 Q160 120 140 100 Q170 90 160 70 Q190 90 180 70 Q210 100 200 140 Z"/>
  </g>
  
  <!-- Shine Effects -->
  <circle cx="50" cy="50" r="5" fill="#FFF" opacity="0.5"/>
  <circle cx="170" cy="50" r="8" fill="#FFF" opacity="0.5"/>
  <circle cx="50" cy="170" r="8" fill="#FFF" opacity="0.5"/>
  <circle cx="170" cy="170" r="5" fill="#FFF" opacity="0.5"/>
  
  <!-- Center Design -->
  <circle cx="110" cy="110" r="30" fill="none" stroke="#FFF" stroke-width="2" opacity="0.3"/>
</svg>